<svg viewBox="0 0 160 40" fill="none" xmlns="http://www.w3.org/2000/svg" aria-label="NightPDF Logo" role="img">
  <defs>
    <mask id="npdf-punch-full">
      <rect width="24" height="24" fill="white"/>
      <circle cx="12" cy="10" r="4.5" fill="black"/>
      <circle cx="13.5" cy="8.5" r="4.5" fill="white"/>
      <line x1="8" y1="16" x2="16" y2="16" stroke="black" stroke-width="1.5" stroke-linecap="round"/>
      <line x1="8" y1="19" x2="13" y2="19" stroke="black" stroke-width="1.5" stroke-linecap="round"/>
    </mask>
  </defs>
  
  <g transform="translate(8, 8)">
    <path d="M14 2H6a2 2 0 0 0-2 2v16a2 2 0 0 0 2 2h12a2 2 0 0 0 2-2V8l-6-6z" fill="#ffffff" mask="url(#npdf-punch-full)"/>
    <path d="M14 2v4a2 2 0 0 0 2 2h4" fill="none" stroke="#ffffff" stroke-width="2"/>
  </g>
  
  <text x="40" y="27" font-family="'Outfit', sans-serif" font-weight="800" font-size="20" fill="#ffffff" letter-spacing="-0.02em">Night<tspan fill="#a1a1aa">PDF</tspan></text>
</svg>
